# xmcd
#
# Track frame offsets:
# 150
# 13723
# 24773
# 41117
# 62185
# 91342
# 103143
# 113800
# 125946
# 144103
# 155127
# 166626
# 176701
# 190490
# 204056
# 217885
# 233872
# 248950
# 262016
# 271629
# 282077
# 293315
# 302604
# 312902
# 322907
#
# Disc length: 4443 seconds
#
# Revision: 0
# Processed by: cddbd v1.5.2PL0 Copyright (c) Steve Scherf et al.
# Submitted via: CoinsHifi v1.9h contact@coinshifi.com
#
DISCID=59115919
DTITLE=differents - divers titre
DYEAR=2009
DGENRE=Acoustic
TTITLE0=ock
TTITLE1=ock
TTITLE2=ock
TTITLE3=ock
TTITLE4=ock
TTITLE5=ock
TTITLE6=ock
TTITLE7=ock
TTITLE8=ock
TTITLE9=ock
TTITLE10=ock
TTITLE11=ock
TTITLE12=ock
TTITLE13=ock
TTITLE14=ock
TTITLE15=ock
TTITLE16=ock
TTITLE17=ock
TTITLE18=ock
TTITLE19=ock
TTITLE20=ock
TTITLE21=ock
TTITLE22=ock
TTITLE23=ock
TTITLE24=ock
EXTD=
EXTT0=Live
EXTT1=Live
EXTT2=Live
EXTT3=Live
EXTT4=Live
EXTT5=Live
EXTT6=Live
EXTT7=Live
EXTT8=Live
EXTT9=Live
EXTT10=Live
EXTT11=Live
EXTT12=Live
EXTT13=Live
EXTT14=Live
EXTT15=Live
EXTT16=Live
EXTT17=Live
EXTT18=Live
EXTT19=Live
EXTT20=Live
EXTT21=Live
EXTT22=Live
EXTT23=Live
EXTT24=Live
PLAYORDER=
